<svg width="24" height="23" viewBox="0 0 24 23" fill="none" xmlns="http://www.w3.org/2000/svg">
<path d="M23.3935 11.7569C23.3935 11.0335 23.3155 10.2869 23.1855 9.58685H11.9275V13.7169H18.3755C18.1155 15.0469 17.2575 16.2135 15.9835 16.9602L19.8315 19.6435C22.0935 17.7535 23.3935 15.0002 23.3935 11.7569Z" fill="#4280EF"/>
<path d="M11.9276 22.2102C15.1516 22.2102 17.8556 21.2535 19.8316 19.6202L15.9836 16.9602C14.9176 17.6135 13.5396 17.9868 11.9276 17.9868C8.80758 17.9868 6.18158 16.0968 5.21958 13.5768L1.26758 16.3068C3.29558 19.9235 7.40358 22.2102 11.9276 22.2102Z" fill="#34A353"/>
<path d="M5.2195 13.5535C4.7255 12.2235 4.7255 10.7769 5.2195 9.44687L1.2675 6.69354C-0.4225 9.72688 -0.4225 13.2969 1.2675 16.3069L5.2195 13.5535Z" fill="#F6B704"/>
<path d="M11.9276 5.03687C13.6176 5.01354 15.2816 5.59687 16.5036 6.64687L19.9096 3.56687C17.7516 1.74687 14.8916 0.766869 11.9276 0.790202C7.40358 0.790202 3.29558 3.07687 1.26758 6.69354L5.21958 9.44687C6.18158 6.90353 8.80758 5.03687 11.9276 5.03687Z" fill="#E54335"/>
</svg>
