<svg width="14" height="14" viewBox="0 0 14 14" fill="none" xmlns="http://www.w3.org/2000/svg">
<path fill-rule="evenodd" clip-rule="evenodd" d="M6.00016 0.333496C2.87055 0.333496 0.333496 2.87055 0.333496 6.00016C0.333496 9.1298 2.87055 11.6668 6.00016 11.6668C9.1298 11.6668 11.6668 9.1298 11.6668 6.00016C11.6668 2.87055 9.1298 0.333496 6.00016 0.333496ZM1.66683 6.00016C1.66683 3.60693 3.60693 1.66683 6.00016 1.66683C8.3934 1.66683 10.3335 3.60693 10.3335 6.00016C10.3335 8.3934 8.3934 10.3335 6.00016 10.3335C3.60693 10.3335 1.66683 8.3934 1.66683 6.00016Z" fill="#A1A1AA"/>
<path d="M9.1953 10.1381L12.5286 13.4715L13.4715 12.5286L10.1381 9.19531L9.1953 10.1381Z" fill="#A1A1AA"/>
</svg>
