<svg width="216" height="218" viewBox="0 0 216 218" fill="none" xmlns="http://www.w3.org/2000/svg">
<path d="M68.9752 32.9969C27.7647 43.7351 17.4621 79.8794 17.4621 96.6093L17.3166 130.604L17.3019 134.025C17.787 135.289 19.8486 137.578 23.5738 138.045C27.2569 138.506 29.3468 134.823 29.9562 132.859C29.9702 132.814 29.9768 132.768 29.9771 132.721L30.2676 93.983C31.7228 80.8521 42.3165 52.7226 73.0497 45.2525C74.4079 44.7662 76.9496 42.5096 76.2511 37.3739C75.9601 36.0122 74.0975 33.2304 68.9752 32.9969Z" fill="#E8F2FC"/>
<path d="M96.2017 104.47C96.2859 104.481 96.3652 104.513 96.4332 104.563C100.854 107.853 111.99 112.333 122.128 104.57C122.197 104.517 122.28 104.481 122.366 104.472C123.722 104.329 125.917 104.874 124.9 108.137C124.872 108.23 124.817 108.311 124.74 108.371C119.531 112.436 106.269 117.864 93.818 107.783C93.7503 107.728 93.6962 107.655 93.6677 107.573C93.2279 106.3 93.1786 104.099 96.2017 104.47Z" fill="#A8D1F9"/>
<path d="M45.2706 104.47C45.3548 104.481 45.4341 104.513 45.5022 104.563C49.9231 107.853 61.059 112.333 71.1973 104.57C71.2661 104.517 71.3485 104.481 71.4347 104.472C72.7909 104.329 74.9862 104.874 73.9693 108.137C73.9404 108.23 73.8855 108.311 73.8089 108.371C68.5999 112.436 55.3375 117.864 42.8869 107.783C42.8192 107.728 42.7651 107.655 42.7366 107.573C42.2969 106.3 42.2475 104.099 45.2706 104.47Z" fill="#A8D1F9"/>
<path d="M83.4614 129.59C83.5042 129.585 83.5472 129.586 83.5898 129.592C86.1157 129.998 90.807 131.698 89.9429 135.364C89.9346 135.4 89.9222 135.434 89.9052 135.466C89.3829 136.452 87.4832 138.274 83.818 138.045C81.8875 138.045 77.9787 137.409 77.7101 134.874C77.7074 134.848 77.7069 134.823 77.7088 134.798C77.8235 133.236 79.1251 130.078 83.4614 129.59Z" fill="#A9D1F9"/>
<path d="M150.465 94.2748C146.735 60.4273 125.573 43.2953 109.422 36.3688C118.638 43.8583 137.194 63.5192 137.659 81.7275V135.71C136.981 142.028 131.091 155.707 112.964 159.92C112.936 159.926 112.907 159.931 112.879 159.932L31.4547 164.592L71.3035 164.599H150.174L150.465 94.2748Z" fill="#A7D0F9"/>
<path d="M98.6608 32.9969C98.1951 18.7571 88.1835 15.9753 83.2359 16.3643C86.9495 18.0828 94.0837 23.4558 93.4654 31.3797C93.4455 31.6346 93.6115 31.8719 93.8611 31.9275L98.6608 32.9969Z" fill="#A8D1F9"/>
<path d="M57.9159 188.818C57.5279 198.447 62.165 217.764 83.818 217.998C105.471 218.231 110.108 198.642 109.72 188.818H57.9159Z" fill="#A8D1F9"/>
<path fill-rule="evenodd" clip-rule="evenodd" d="M83.2359 16.3643C71.8274 15.8975 68.9752 27.2582 68.9752 32.9969C74.0975 33.2304 75.9601 36.0122 76.2511 37.3739C76.9496 42.5096 74.4079 44.7662 73.0497 45.2525C42.3165 52.7226 31.7228 80.8521 30.2676 93.983L29.9771 132.721C29.9768 132.768 29.9702 132.814 29.9562 132.859C29.3468 134.823 27.2569 138.506 23.5738 138.045C19.8486 137.578 17.787 135.289 17.3019 134.025L17.1711 164.599L31.4547 164.592L112.879 159.932C112.907 159.931 112.936 159.926 112.964 159.92C131.091 155.707 136.981 142.028 137.659 135.71V81.7275C137.194 63.5192 118.638 43.8583 109.422 36.3688C105.411 34.6487 101.71 33.558 98.6608 32.9969L93.8611 31.9275C93.6115 31.8719 93.4455 31.6346 93.4654 31.3797C94.0837 23.4558 86.9495 18.0828 83.2359 16.3643ZM71.4347 104.472C71.3485 104.481 71.2661 104.517 71.1973 104.57C61.059 112.333 49.9231 107.853 45.5022 104.563C45.4341 104.513 45.3548 104.481 45.2706 104.47C42.2475 104.099 42.2969 106.3 42.7366 107.573C42.7651 107.655 42.8192 107.728 42.8869 107.783C55.3375 117.864 68.5999 112.436 73.8089 108.371C73.8855 108.311 73.9404 108.23 73.9693 108.137C74.9862 104.874 72.7909 104.329 71.4347 104.472ZM122.366 104.472C122.28 104.481 122.197 104.517 122.128 104.57C111.99 112.333 100.854 107.853 96.4332 104.563C96.3652 104.513 96.2859 104.481 96.2017 104.47C93.1786 104.099 93.2279 106.3 93.6677 107.573C93.6962 107.655 93.7503 107.728 93.818 107.783C106.269 117.864 119.531 112.436 124.74 108.371C124.817 108.311 124.872 108.23 124.9 108.137C125.917 104.874 123.722 104.329 122.366 104.472ZM89.9052 135.466C89.9222 135.434 89.9346 135.4 89.9429 135.364C90.807 131.698 86.1157 129.998 83.5898 129.592C83.5472 129.586 83.5042 129.585 83.4614 129.59C79.1251 130.078 77.8235 133.236 77.7088 134.798C77.7069 134.823 77.7074 134.848 77.7101 134.874C77.9787 137.409 81.8875 138.045 83.818 138.045C87.4832 138.274 89.3829 136.452 89.9052 135.466Z" fill="#D2E6FB"/>
<path d="M0 177.73C0.193469 180.542 2.48973 186.682 10.1206 188.8C10.1635 188.812 10.2088 188.818 10.2533 188.818H57.9159H109.72H157.69C157.724 188.818 157.756 188.815 157.79 188.808C160.622 188.198 166.479 185.037 167.636 177.146C168.121 172.672 165.308 163.898 150.174 164.599H71.3035C72.9527 165.474 76.2511 168.042 76.2511 171.31C76.2511 174.52 72.8826 176.866 71.1079 177.686C71.0443 177.716 70.9762 177.73 70.9061 177.73H0Z" fill="#BBDBFF"/>
<path d="M17.1711 164.599H10.2328C10.2018 164.599 10.1722 164.601 10.1418 164.607C7.02142 165.215 0.69517 168.669 0 177.73H70.9061C70.9762 177.73 71.0443 177.716 71.1079 177.686C72.8826 176.866 76.2511 174.52 76.2511 171.31C76.2511 168.042 72.9527 165.474 71.3035 164.599L31.4547 164.592L17.1711 164.599Z" fill="#E8F2FC"/>
<path d="M157.597 14.1874C157.687 14.2738 157.81 14.3217 157.935 14.3217H169.924C170.369 14.3217 170.592 14.8596 170.278 15.1748L148.816 36.6924C148.753 36.7565 148.706 36.836 148.69 36.9249C148.536 37.7413 148.626 39.3819 150.045 40.4874C150.127 40.5516 150.23 40.5837 150.335 40.5837H170.987C171.079 40.5837 171.171 40.5586 171.248 40.507C172.475 39.6852 174.011 37.6585 171.264 35.4386C171.178 35.3692 171.069 35.3313 170.958 35.3313H158.946C158.501 35.3313 158.277 34.7934 158.592 34.4782L178.695 14.3217C179.756 13.162 181.346 9.78467 178.461 9.08255C178.424 9.07375 178.386 9.06934 178.348 9.06934H158.15C158.072 9.06934 157.996 9.08678 157.927 9.12397C156.612 9.83973 155.06 11.7515 157.597 14.1874Z" fill="#BCDAFB"/>
<path d="M208.96 4.8837C209.274 4.56844 209.051 4.03082 208.606 4.03082H200.584C200.49 4.03082 200.398 4.00592 200.322 3.94998C199.446 3.30099 198.242 1.35653 200.324 0.0692027C200.398 0.0232903 200.486 0 200.573 0H214.956C215.089 0 215.217 0.0520041 215.306 0.150897C216.195 1.14048 216.42 2.43379 214.829 4.03082L201.29 17.6217C200.976 17.937 201.199 18.4746 201.644 18.4746H209.621C209.742 18.4746 209.86 18.5175 209.947 18.6021C210.802 19.4323 211.8 21.1568 209.931 22.4258C209.854 22.4787 209.76 22.5054 209.666 22.5054H195.271C195.152 22.5054 195.035 22.4637 194.949 22.3803C194.195 21.6472 193.331 20.0976 195.052 18.8354C195.074 18.8191 195.096 18.8007 195.115 18.7811L208.96 4.8837Z" fill="#A8D1F9"/>
</svg>
